REM DIRINDEX 1\2,1\3,1\4
REM DIRNAME folder01,folder02,folder03,folder04
TITLE ""
FILE "049 049_TOEFL_3900.mp3" MP3
  TRACK 01 AUDIO
    TITLE "2:cjc151_2101"
    INDEX 01 00:00:00
  TRACK 02 AUDIO
    TITLE "0:"
    INDEX 01 00:01:11
  TRACK 03 AUDIO
    TITLE "3:cjc151_2102"
    INDEX 01 00:02:65
  TRACK 04 AUDIO
    TITLE "0:"
    INDEX 01 00:06:67
  TRACK 05 AUDIO
    TITLE "2:cjc151_2103"
    INDEX 01 00:08:46
  TRACK 06 AUDIO
    TITLE "0:"
    INDEX 01 00:09:63
  TRACK 07 AUDIO
    TITLE "3:cjc151_2104"
    INDEX 01 00:11:42
  TRACK 08 AUDIO
    TITLE "0:"
    INDEX 01 00:16:12
  TRACK 09 AUDIO
    TITLE "2:cjc151_2105"
    INDEX 01 00:17:69
  TRACK 10 AUDIO
    TITLE "0:"
    INDEX 01 00:18:74
  TRACK 11 AUDIO
    TITLE "3:cjc151_2106"
    INDEX 01 00:20:51
  TRACK 12 AUDIO
    TITLE "0:"
    INDEX 01 00:24:43
  TRACK 13 AUDIO
    TITLE "2:cjc151_2107"
    INDEX 01 00:26:22
  TRACK 14 AUDIO
    TITLE "0:"
    INDEX 01 00:27:22
  TRACK 15 AUDIO
    TITLE "3:cjc151_2108"
    INDEX 01 00:28:74
  TRACK 16 AUDIO
    TITLE "0:"
    INDEX 01 00:32:74
  TRACK 17 AUDIO
    TITLE "2:cjc151_2109"
    INDEX 01 00:34:53
  TRACK 18 AUDIO
    TITLE "0:"
    INDEX 01 00:35:59
  TRACK 19 AUDIO
    TITLE "3:cjc151_2110"
    INDEX 01 00:37:36
  TRACK 20 AUDIO
    TITLE "0:"
    INDEX 01 00:41:55
  TRACK 21 AUDIO
    TITLE "2:cjc151_2111"
    INDEX 01 00:43:35
  TRACK 22 AUDIO
    TITLE "0:"
    INDEX 01 00:44:34
  TRACK 23 AUDIO
    TITLE "3:cjc151_2112"
    INDEX 01 00:46:17
  TRACK 24 AUDIO
    TITLE "0:"
    INDEX 01 00:50:46
  TRACK 25 AUDIO
    TITLE "2:cjc151_2113"
    INDEX 01 00:52:28
  TRACK 26 AUDIO
    TITLE "0:"
    INDEX 01 00:53:35
  TRACK 27 AUDIO
    TITLE "3:cjc151_2114"
    INDEX 01 00:55:14
  TRACK 28 AUDIO
    TITLE "0:"
    INDEX 01 00:59:20
  TRACK 29 AUDIO
    TITLE "2:cjc151_2115"
    INDEX 01 01:00:74
  TRACK 30 AUDIO
    TITLE "0:"
    INDEX 01 01:02:06
  TRACK 31 AUDIO
    TITLE "3:cjc151_2116"
    INDEX 01 01:03:59
  TRACK 32 AUDIO
    TITLE "0:"
    INDEX 01 01:07:70
  TRACK 33 AUDIO
    TITLE "2:cjc151_2117"
    INDEX 01 01:09:50
  TRACK 34 AUDIO
    TITLE "0:"
    INDEX 01 01:10:43
  TRACK 35 AUDIO
    TITLE "3:cjc151_2118"
    INDEX 01 01:12:23
  TRACK 36 AUDIO
    TITLE "0:"
    INDEX 01 01:15:56
  TRACK 37 AUDIO
    TITLE "2:cjc151_2119"
    INDEX 01 01:17:33
  TRACK 38 AUDIO
    TITLE "0:"
    INDEX 01 01:18:29
  TRACK 39 AUDIO
    TITLE "3:cjc151_2120"
    INDEX 01 01:20:10
  TRACK 40 AUDIO
    TITLE "0:"
    INDEX 01 01:24:06
  TRACK 41 AUDIO
    TITLE "2:cjc151_2121"
    INDEX 01 01:25:60
  TRACK 42 AUDIO
    TITLE "0:"
    INDEX 01 01:26:58
  TRACK 43 AUDIO
    TITLE "3:cjc151_2122"
    INDEX 01 01:28:37
  TRACK 44 AUDIO
    TITLE "0:"
    INDEX 01 01:31:22
  TRACK 45 AUDIO
    TITLE "2:cjc151_2123"
    INDEX 01 01:32:74
  TRACK 46 AUDIO
    TITLE "0:"
    INDEX 01 01:33:74
  TRACK 47 AUDIO
    TITLE "3:cjc151_2124"
    INDEX 01 01:35:49
  TRACK 48 AUDIO
    TITLE "0:"
    INDEX 01 01:38:73
  TRACK 49 AUDIO
    TITLE "2:cjc151_2125"
    INDEX 01 01:40:50
  TRACK 50 AUDIO
    TITLE "0:"
    INDEX 01 01:41:40
  TRACK 51 AUDIO
    TITLE "3:cjc151_2126"
    INDEX 01 01:43:19
  TRACK 52 AUDIO
    TITLE "0:"
    INDEX 01 01:46:47
  TRACK 53 AUDIO
    TITLE "2:cjc151_2127"
    INDEX 01 01:48:26
  TRACK 54 AUDIO
    TITLE "0:"
    INDEX 01 01:49:37
  TRACK 55 AUDIO
    TITLE "3:cjc151_2128"
    INDEX 01 01:51:13
  TRACK 56 AUDIO
    TITLE "0:"
    INDEX 01 01:54:44
  TRACK 57 AUDIO
    TITLE "2:cjc151_2129"
    INDEX 01 01:56:26
  TRACK 58 AUDIO
    TITLE "0:"
    INDEX 01 01:57:23
  TRACK 59 AUDIO
    TITLE "3:cjc151_2130"
    INDEX 01 01:59:03
  TRACK 60 AUDIO
    TITLE "0:"
    INDEX 01 02:02:60
  TRACK 61 AUDIO
    TITLE "2:cjc151_2131"
    INDEX 01 02:04:37
  TRACK 62 AUDIO
    TITLE "0:"
    INDEX 01 02:05:40
  TRACK 63 AUDIO
    TITLE "3:cjc151_2132"
    INDEX 01 02:07:18
  TRACK 64 AUDIO
    TITLE "0:"
    INDEX 01 02:09:71
  TRACK 65 AUDIO
    TITLE "2:cjc151_2133"
    INDEX 01 02:11:49
  TRACK 66 AUDIO
    TITLE "0:"
    INDEX 01 02:12:60
  TRACK 67 AUDIO
    TITLE "3:cjc151_2134"
    INDEX 01 02:14:37
  TRACK 68 AUDIO
    TITLE "0:"
    INDEX 01 02:18:53
  TRACK 69 AUDIO
    TITLE "2:cjc151_2135"
    INDEX 01 02:20:30
  TRACK 70 AUDIO
    TITLE "0:"
    INDEX 01 02:21:18
  TRACK 71 AUDIO
    TITLE "3:cjc151_2136"
    INDEX 01 02:22:72
  TRACK 72 AUDIO
    TITLE "0:"
    INDEX 01 02:27:32
  TRACK 73 AUDIO
    TITLE "2:cjc151_2137"
    INDEX 01 02:29:09
  TRACK 74 AUDIO
    TITLE "0:"
    INDEX 01 02:30:23
  TRACK 75 AUDIO
    TITLE "3:cjc151_2138"
    INDEX 01 02:32:02
  TRACK 76 AUDIO
    TITLE "0:"
    INDEX 01 02:36:04
  TRACK 77 AUDIO
    TITLE "2:cjc151_2139"
    INDEX 01 02:37:58
  TRACK 78 AUDIO
    TITLE "0:"
    INDEX 01 02:38:61
  TRACK 79 AUDIO
    TITLE "3:cjc151_2140"
    INDEX 01 02:40:39
  TRACK 80 AUDIO
    TITLE "0:"
    INDEX 01 02:43:21
  TRACK 81 AUDIO
    TITLE "2:cjc151_2141"
    INDEX 01 02:44:74
  TRACK 82 AUDIO
    TITLE "0:"
    INDEX 01 02:45:73
  TRACK 83 AUDIO
    TITLE "3:cjc151_2142"
    INDEX 01 02:47:52
  TRACK 84 AUDIO
    TITLE "0:"
    INDEX 01 02:50:65
  TRACK 85 AUDIO
    TITLE "2:cjc151_2143"
    INDEX 01 02:52:48
  TRACK 86 AUDIO
    TITLE "0:"
    INDEX 01 02:53:51
  TRACK 87 AUDIO
    TITLE "3:cjc151_2144"
    INDEX 01 02:55:30
  TRACK 88 AUDIO
    TITLE "0:"
    INDEX 01 02:59:01
